<svg width="14" height="11" viewBox="0 0 14 11" fill="none" xmlns="http://www.w3.org/2000/svg">
<path d="M12.073 5.61002H0.500007C0.358007 5.61002 0.239007 5.56236 0.143007 5.46702C0.047007 5.37169 -0.00065977 5.25269 6.89653e-06 5.11002C0.000673563 4.96736 0.0483404 4.84836 0.143007 4.75302C0.237674 4.65769 0.356674 4.61002 0.500007 4.61002H12.073L8.33801 0.876024C8.24067 0.778024 8.19001 0.663024 8.18601 0.531024C8.18201 0.399024 8.23267 0.278024 8.33801 0.168024C8.44867 0.0573576 8.56767 0.00135743 8.69501 2.40963e-05C8.82234 -0.00130924 8.94134 0.0526909 9.05201 0.162024L13.435 4.54502C13.5217 4.63169 13.5827 4.72069 13.618 4.81202C13.6533 4.90336 13.671 5.00269 13.671 5.11002C13.671 5.21736 13.6533 5.31669 13.618 5.40802C13.5827 5.49936 13.5217 5.58869 13.435 5.67602L9.05201 10.058C8.95467 10.1554 8.83901 10.2064 8.70501 10.211C8.57101 10.2157 8.44867 10.1627 8.33801 10.052C8.23134 9.94202 8.17734 9.82402 8.17601 9.69802C8.17467 9.57202 8.22867 9.45402 8.33801 9.34402L12.073 5.61002Z" fill="black"/>
</svg>
