<svg width="9" height="5" viewBox="0 0 9 5" fill="none" xmlns="http://www.w3.org/2000/svg">
<mask id="path-1-inside-1_832_2573" fill="white">
<path d="M4.05 3.58667L0.54 0.0933336C0.477778 0.0311113 0.404 0.00133368 0.318666 0.00400035C0.233778 0.00711146 0.158889 0.0413339 0.0939999 0.106667C0.0313332 0.168889 0 0.245334 0 0.336C0 0.426667 0.031111 0.503111 0.0933332 0.565334L3.67333 4.14467C3.78089 4.25267 3.90644 4.30667 4.05 4.30667C4.19356 4.30667 4.31933 4.25267 4.42733 4.14467L8.01933 0.552667C8.08156 0.490445 8.11111 0.414445 8.108 0.324667C8.10489 0.234889 8.07089 0.157778 8.006 0.0933336C7.94378 0.0311113 7.86955 0 7.78333 0C7.69711 0 7.62289 0.0311113 7.56067 0.0933336L4.05 3.58667Z"/>
</mask>
<path d="M4.05 3.58667L0.54 0.0933336C0.477778 0.0311113 0.404 0.00133368 0.318666 0.00400035C0.233778 0.00711146 0.158889 0.0413339 0.0939999 0.106667C0.0313332 0.168889 0 0.245334 0 0.336C0 0.426667 0.031111 0.503111 0.0933332 0.565334L3.67333 4.14467C3.78089 4.25267 3.90644 4.30667 4.05 4.30667C4.19356 4.30667 4.31933 4.25267 4.42733 4.14467L8.01933 0.552667C8.08156 0.490445 8.11111 0.414445 8.108 0.324667C8.10489 0.234889 8.07089 0.157778 8.006 0.0933336C7.94378 0.0311113 7.86955 0 7.78333 0C7.69711 0 7.62289 0.0311113 7.56067 0.0933336L4.05 3.58667Z" fill="#282829"/>
<path d="M4.05 3.58667L3.34458 4.29545L4.04993 4.99746L4.75535 4.29552L4.05 3.58667ZM0.54 0.0933336L-0.167109 0.800442L-0.165422 0.802121L0.54 0.0933336ZM0.318666 0.00400035L0.287431 -0.995526L0.282042 -0.995329L0.318666 0.00400035ZM0.0939999 0.106667L0.798603 0.816303L0.803516 0.811357L0.0939999 0.106667ZM0.0933332 0.565334L-0.613774 1.27244L-0.613708 1.27251L0.0933332 0.565334ZM3.67333 4.14467L4.3819 3.43902L4.38037 3.43749L3.67333 4.14467ZM4.42733 4.14467L3.72023 3.43756L4.42733 4.14467ZM8.01933 0.552667L8.72644 1.25977L8.01933 0.552667ZM8.006 0.0933336L7.29889 0.800445L7.30133 0.802866L8.006 0.0933336ZM7.56067 0.0933336L8.26602 0.80219L8.26777 0.80044L7.56067 0.0933336ZM4.05 3.58667L4.75542 2.87788L1.24542 -0.615454L0.54 0.0933336L-0.165422 0.802121L3.34458 4.29545L4.05 3.58667ZM0.54 0.0933336L1.24711 -0.613773C0.996449 -0.864431 0.658111 -1.0071 0.287432 -0.995512L0.318666 0.00400035L0.349901 1.00351C0.264134 1.00619 0.164739 0.992422 0.0637225 0.95165C-0.0366092 0.911155 -0.113308 0.854239 -0.167107 0.80044L0.54 0.0933336ZM0.318666 0.00400035L0.282042 -0.995329C-0.0787423 -0.982106 -0.388233 -0.826862 -0.615516 -0.598022L0.0939999 0.106667L0.803516 0.811357C0.761112 0.854051 0.6987 0.90304 0.614466 0.941533C0.528884 0.980642 0.43961 1.00024 0.355291 1.00333L0.318666 0.00400035ZM0.0939999 0.106667L-0.610586 -0.602951C-0.867911 -0.347451 -1 -0.0131477 -1 0.336H0H1C1 0.408018 0.987063 0.496552 0.94879 0.589928C0.910299 0.683835 0.855549 0.759727 0.798586 0.816286L0.0939999 0.106667ZM0 0.336H-1C-1 0.682879 -0.869805 1.01641 -0.613774 1.27244L0.0933332 0.565334L0.80044 -0.141773C0.857334 -0.0848795 0.911565 -0.00899159 0.949565 0.0843793C0.987322 0.177155 1 0.264875 1 0.336H0ZM0.0933332 0.565334L-0.613708 1.27251L2.96629 4.85184L3.67333 4.14467L4.38037 3.43749L0.800374 -0.141839L0.0933332 0.565334ZM3.67333 4.14467L2.96477 4.85031C3.24711 5.13382 3.62282 5.30667 4.05 5.30667V4.30667V3.30667C4.10711 3.30667 4.17499 3.31816 4.24326 3.34753C4.31035 3.37638 4.35606 3.41308 4.3819 3.43902L3.67333 4.14467ZM4.05 4.30667V5.30667C4.47701 5.30667 4.8522 5.13401 5.13444 4.85177L4.42733 4.14467L3.72023 3.43756C3.74565 3.41214 3.79091 3.37586 3.85749 3.34727C3.92529 3.31817 3.99288 3.30667 4.05 3.30667V4.30667ZM4.42733 4.14467L5.13444 4.85177L8.72644 1.25977L8.01933 0.552667L7.31223 -0.15444L3.72023 3.43756L4.42733 4.14467ZM8.01933 0.552667L8.72644 1.25977C8.9893 0.996919 9.11988 0.650326 9.1074 0.290034L8.108 0.324667L7.1086 0.3593C7.10594 0.282481 7.11699 0.187284 7.15616 0.0865578C7.19552 -0.014646 7.25314 -0.0953523 7.31223 -0.15444L8.01933 0.552667ZM8.108 0.324667L9.1074 0.290034C9.0953 -0.0590596 8.95246 -0.376063 8.71067 -0.616199L8.006 0.0933336L7.30133 0.802866C7.25275 0.754619 7.20268 0.688044 7.16516 0.602942C7.1275 0.517532 7.11116 0.433118 7.1086 0.3593L8.108 0.324667ZM8.006 0.0933336L8.71311 -0.613773C8.46767 -0.859206 8.14083 -1 7.78333 -1V0V1C7.70329 1 7.61094 0.98493 7.51709 0.945591C7.42364 0.906422 7.35102 0.852563 7.29889 0.80044L8.006 0.0933336ZM7.78333 0V-1C7.42584 -1 7.09899 -0.859205 6.85356 -0.613773L7.56067 0.0933336L8.26777 0.80044C8.21565 0.852562 8.14302 0.906421 8.04958 0.94559C7.95573 0.98493 7.86338 1 7.78333 1V0ZM7.56067 0.0933336L6.85531 -0.615521L3.34465 2.87781L4.05 3.58667L4.75535 4.29552L8.26602 0.802188L7.56067 0.0933336Z" fill="#282829" mask="url(#path-1-inside-1_832_2573)"/>
</svg>
