<svg width="21" height="22" viewBox="0 0 21 22" fill="none" xmlns="http://www.w3.org/2000/svg">
<path d="M6.19268 21.7187C5.70034 21.7187 5.2854 21.5499 4.94784 21.2123C4.61029 20.8748 4.4419 20.4602 4.44268 19.9687C4.44345 19.4771 4.61184 19.0622 4.94784 18.7238C5.2854 18.3871 5.70034 18.2187 6.19268 18.2187C6.68501 18.2187 7.09956 18.3871 7.43634 18.7238C7.77312 19.0606 7.9419 19.4756 7.94267 19.9687C7.94345 20.4618 7.77467 20.8763 7.43634 21.2123C7.09801 21.5483 6.68345 21.7171 6.19268 21.7187ZM17.1407 21.7187C16.6491 21.7187 16.2346 21.5499 15.897 21.2123C15.5595 20.8748 15.3907 20.4602 15.3907 19.9687C15.3907 19.4771 15.5595 19.0622 15.897 18.7238C16.2346 18.3871 16.6491 18.2187 17.1407 18.2187C17.6322 18.2187 18.0472 18.3871 18.3855 18.7238C18.7223 19.0614 18.8907 19.4763 18.8907 19.9687C18.8907 20.4602 18.7223 20.8748 18.3855 21.2123C18.048 21.5499 17.633 21.7187 17.1407 21.7187ZM4.52784 3.5L7.64167 10.052H15.3825C15.5171 10.052 15.6365 10.0182 15.7407 9.9505C15.8457 9.88283 15.9355 9.7895 16.0102 9.6705L19.0622 4.12883C19.1516 3.96394 19.159 3.81811 19.0843 3.69133C19.0089 3.56378 18.8817 3.5 18.7028 3.5H4.52784ZM3.95734 2.33333H19.1473C19.6537 2.33333 20.0348 2.54022 20.2907 2.954C20.5473 3.367 20.561 3.79283 20.3315 4.2315L16.9972 10.3075C16.8284 10.5914 16.6091 10.8142 16.3392 10.976C16.0693 11.1378 15.7726 11.2187 15.449 11.2187H7.11668L5.69917 13.8203C5.5794 14 5.57551 14.1944 5.68751 14.4037C5.79951 14.6129 5.9679 14.7179 6.19268 14.7187H18.3073C18.4738 14.7187 18.6126 14.7743 18.7238 14.8855C18.8351 14.9967 18.8907 15.1356 18.8907 15.302C18.8907 15.4684 18.8351 15.6069 18.7238 15.7173C18.6126 15.8278 18.4738 15.8838 18.3073 15.8853H6.19268C5.51212 15.8853 5.00423 15.5983 4.66901 15.0243C4.33379 14.4503 4.32562 13.874 4.64451 13.2953L6.39918 10.1687L2.10934 1.16667H0.583341C0.417675 1.16667 0.278841 1.11106 0.166841 0.999833C0.0548413 0.888611 -0.000769732 0.749778 8.046e-06 0.583333C0.000785824 0.416889 0.0563968 0.278055 0.166841 0.166833C0.277286 0.055611 0.416119 0 0.583341 0H2.25517C2.43873 0 2.60556 0.0470556 2.75567 0.141167C2.90501 0.235278 3.0209 0.366722 3.10334 0.5355L3.95734 2.33333Z" fill="#1E1E1F"/>
</svg>
