<svg width="24" height="24" viewBox="0 0 24 24" fill="none" xmlns="http://www.w3.org/2000/svg">
<path d="M6.462 20H5.616C5.15533 20 4.771 19.846 4.463 19.538C4.155 19.23 4.00067 18.8453 4 18.384V12C4 10.8907 4.20867 9.85133 4.626 8.882C5.04333 7.91267 5.61467 7.06533 6.34 6.34C7.06533 5.61467 7.91267 5.04333 8.882 4.626C9.85133 4.20867 10.8907 4 12 4C13.1093 4 14.1487 4.20867 15.118 4.626C16.0873 5.04333 16.9347 5.61467 17.66 6.34C18.3853 7.06533 18.9567 7.91267 19.374 8.882C19.7913 9.85133 20 10.8907 20 12V18.385C20 18.845 19.846 19.229 19.538 19.537C19.23 19.845 18.8453 19.9993 18.384 20H17.538C17.0913 20 16.7103 19.8427 16.395 19.528C16.0803 19.2133 15.923 18.832 15.923 18.384V15.462C15.923 15.0147 16.0803 14.6333 16.395 14.318C16.7097 14.0027 17.091 13.8453 17.539 13.846H19V12C19 10.05 18.321 8.396 16.963 7.038C15.605 5.68 13.9507 5.00067 12 5C10.0493 4.99933 8.39533 5.67867 7.038 7.038C5.68067 8.39733 5.00133 10.0513 5 12V13.846H6.462C6.90867 13.846 7.28967 14.0033 7.605 14.318C7.91967 14.6327 8.077 15.0137 8.077 15.461V18.384C8.077 18.832 7.91967 19.2133 7.605 19.528C7.29033 19.8427 6.90867 20 6.46 20M6.46 14.846H5V18.385C5 18.5383 5.064 18.6793 5.192 18.808C5.32 18.9367 5.461 19.0007 5.615 19H6.461C6.641 19 6.78867 18.9423 6.904 18.827C7.01933 18.7117 7.077 18.5643 7.077 18.385V15.46C7.077 15.2807 7.01933 15.1333 6.904 15.018C6.78867 14.9027 6.64133 14.845 6.462 14.845M16.923 15.461V18.384C16.923 18.5633 16.9807 18.7107 17.096 18.826C17.2113 18.9413 17.359 18.999 17.539 18.999H18.385C18.5383 18.999 18.6793 18.935 18.808 18.807C18.9367 18.679 19.0007 18.5377 19 18.383V14.845H17.539C17.359 14.845 17.2113 14.9027 17.096 15.018C16.9807 15.1333 16.923 15.281 16.923 15.461ZM6.462 14.845H7.077L5 14.846L6.462 14.845Z" fill="black"/>
</svg>
