<svg width="24" height="24" viewBox="0 0 24 24" fill="none" xmlns="http://www.w3.org/2000/svg">
<path d="M4.796 13.298C4.21267 12.7146 3.76733 12.0576 3.46 11.327C3.15333 10.5963 3 9.84831 3 9.08297C3 7.64764 3.44933 6.42897 4.348 5.42697C5.24667 4.42497 6.35 3.92364 7.658 3.92297C8.342 3.92297 9 4.06531 9.632 4.34997C10.2633 4.63464 10.8283 5.03464 11.327 5.54997L12 6.26197L12.635 5.58897C13.1423 5.04764 13.715 4.63464 14.353 4.34997C14.991 4.06531 15.6457 3.92297 16.317 3.92297C17.625 3.92297 18.7327 4.42431 19.64 5.42697C20.5473 6.42964 21.0007 7.63964 21 9.05697C21 9.83564 20.8457 10.5903 20.537 11.321C20.2277 12.0516 19.7833 12.7086 19.204 13.292L11.975 20.527L4.796 13.298ZM7.658 4.92297C6.63467 4.92297 5.769 5.32464 5.061 6.12797C4.35367 6.93131 4 7.90797 4 9.05797C4 9.48597 4.057 9.90364 4.171 10.311C4.285 10.7183 4.45167 11.1146 4.671 11.5H9.256L10.854 13.885L12.531 8.75797H13.441L15.256 11.5H19.329C19.561 11.114 19.735 10.7143 19.851 10.301C19.967 9.88764 20.0187 9.47331 20.006 9.05797C19.9853 7.90797 19.621 6.93331 18.913 6.13397C18.2057 5.33397 17.3403 4.93397 16.317 4.93397C15.775 4.93397 15.2473 5.04397 14.734 5.26397C14.2207 5.48264 13.776 5.80297 13.4 6.22497L12.273 7.42697H11.702L10.575 6.22497C10.1997 5.80297 9.75633 5.48064 9.245 5.25797C8.733 5.03464 8.204 4.92297 7.658 4.92297ZM12 19.1L18.575 12.5H14.739L13.146 10.116L11.469 15.248H10.554L8.719 12.5H5.419L12 19.1Z" fill="black"/>
</svg>
