<svg width="15" height="12" viewBox="0 0 15 12" fill="none" xmlns="http://www.w3.org/2000/svg">
<path d="M1.34667 11.6667C0.962778 11.6667 0.6425 11.5383 0.385833 11.2817C0.129167 11.025 0.000555556 10.7044 0 10.32V1.34667C0 0.962778 0.128611 0.6425 0.385833 0.385833C0.643056 0.129167 0.963055 0.000555556 1.34583 0H13.6542C14.0375 0 14.3575 0.128611 14.6142 0.385833C14.8708 0.643055 14.9994 0.963334 15 1.34667V10.3208C15 10.7042 14.8714 11.0244 14.6142 11.2817C14.3569 11.5389 14.0369 11.6672 13.6542 11.6667H1.34667ZM14.1667 1.57083L7.87333 5.69083C7.81444 5.72139 7.755 5.74722 7.695 5.76833C7.63444 5.78889 7.56944 5.79917 7.5 5.79917C7.43056 5.79917 7.36556 5.78889 7.305 5.76833C7.24444 5.74778 7.185 5.72195 7.12667 5.69083L0.833333 1.57V10.32C0.833333 10.47 0.881389 10.5931 0.9775 10.6892C1.07361 10.7853 1.19667 10.8333 1.34667 10.8333H13.6542C13.8036 10.8333 13.9264 10.7853 14.0225 10.6892C14.1186 10.5931 14.1667 10.47 14.1667 10.32V1.57083ZM7.5 5L13.91 0.833333H1.09L7.5 5ZM0.833333 1.74667V1.07083V1.09917V0.833333V1.1V1.05667V1.74667Z" fill="#3C3D3D"/>
</svg>
