<svg width="24" height="24" viewBox="0 0 24 24" fill="none" xmlns="http://www.w3.org/2000/svg">
<path d="M12 19.677C13.88 18.041 15.366 16.3773 16.458 14.686C17.55 12.9947 18.096 11.5313 18.096 10.296C18.096 8.46667 17.517 6.95667 16.359 5.766C15.1997 4.576 13.7467 3.981 12 3.981C10.2533 3.981 8.80033 4.576 7.641 5.766C6.48167 6.956 5.90267 8.466 5.904 10.296C5.904 11.5307 6.45 12.994 7.542 14.686C8.634 16.378 10.12 18.0417 12 19.677ZM12 20.556C11.8433 20.556 11.6867 20.5303 11.53 20.479C11.3733 20.4277 11.2293 20.3443 11.098 20.229C10.3867 19.575 9.66533 18.8467 8.934 18.044C8.20333 17.242 7.54 16.411 6.944 15.551C6.348 14.691 5.85867 13.8133 5.476 12.918C5.09333 12.0227 4.90267 11.1487 4.904 10.296C4.904 8.18067 5.59267 6.436 6.97 5.062C8.348 3.68733 10.0247 3 12 3C13.9753 3 15.652 3.68733 17.03 5.062C18.4073 6.436 19.096 8.18067 19.096 10.296C19.096 11.1487 18.9053 12.0197 18.524 12.909C18.1427 13.7977 17.6567 14.675 17.066 15.541C16.476 16.4077 15.8157 17.239 15.085 18.035C14.3543 18.831 13.6327 19.556 12.92 20.21C12.7927 20.3253 12.648 20.412 12.486 20.47C12.3233 20.5273 12.161 20.556 11.999 20.556M12.003 11.731C12.4477 11.731 12.8277 11.5723 13.143 11.255C13.4577 10.9383 13.615 10.5573 13.615 10.112C13.615 9.66667 13.4563 9.28667 13.139 8.972C12.8217 8.65733 12.4407 8.5 11.996 8.5C11.5513 8.5 11.1713 8.65867 10.856 8.976C10.5407 9.29333 10.3833 9.67433 10.384 10.119C10.3847 10.5637 10.543 10.9437 10.859 11.259C11.175 11.5743 11.5563 11.7317 12.003 11.731Z" fill="black"/>
</svg>
