<svg width="16" height="16" viewBox="0 0 16 16" fill="none" xmlns="http://www.w3.org/2000/svg">
<path d="M8.00001 16C7.85801 16 7.73901 15.952 7.64301 15.856C7.54701 15.76 7.49934 15.6413 7.50001 15.5V8.50001H0.500007C0.358007 8.50001 0.23934 8.45201 0.144007 8.35601C0.0486736 8.26001 0.000673516 8.14101 6.84931e-06 7.99901C-0.000659817 7.85701 0.0473402 7.73834 0.144007 7.64301C0.240674 7.54767 0.35934 7.50001 0.500007 7.50001H7.50001V0.500007C7.50001 0.358007 7.54801 0.23934 7.64401 0.144007C7.74001 0.0486736 7.85901 0.000673516 8.00101 6.84931e-06C8.14301 -0.000659817 8.26167 0.0473402 8.35701 0.144007C8.45234 0.240674 8.50001 0.35934 8.50001 0.500007V7.50001H15.5C15.642 7.50001 15.7607 7.54801 15.856 7.64401C15.9513 7.74001 15.9993 7.85901 16 8.00101C16.0007 8.14301 15.9527 8.26167 15.856 8.35701C15.7593 8.45234 15.6407 8.50001 15.5 8.50001H8.50001V15.5C8.50001 15.642 8.45201 15.7607 8.35601 15.856C8.26001 15.9513 8.14101 15.9993 7.99901 16" fill="#BDBEBE"/>
</svg>
