<svg width="20" height="20" viewBox="0 0 20 20" fill="none" xmlns="http://www.w3.org/2000/svg">
<path d="M18.2898 19.1158L10.9842 11.8102C10.4008 12.3072 9.73 12.6918 8.97167 12.964C8.21333 13.2362 7.45111 13.3723 6.685 13.3723C4.81678 13.3723 3.23556 12.7256 1.94133 11.4322C0.647111 10.1387 0 8.55789 0 6.68967C0 4.82145 0.646333 3.23984 1.939 1.94484C3.23167 0.649836 4.81211 0.00155835 6.68033 2.79776e-06C8.54856 -0.00155276 10.1306 0.645558 11.4263 1.94134C12.7221 3.23711 13.37 4.81873 13.37 6.68617C13.37 7.49661 13.2265 8.281 12.9395 9.03934C12.6525 9.79767 12.2753 10.4463 11.8078 10.9853L19.1135 18.2898L18.2898 19.1158ZM6.68617 12.2045C8.23394 12.2045 9.54061 11.6717 10.6062 10.6062C11.6717 9.54062 12.2045 8.23356 12.2045 6.685C12.2045 5.13645 11.6717 3.82978 10.6062 2.765C9.54061 1.70022 8.23394 1.16745 6.68617 1.16667C5.13839 1.16589 3.83133 1.69867 2.765 2.765C1.69867 3.83134 1.16589 5.138 1.16667 6.685C1.16744 8.232 1.70022 9.53867 2.765 10.605C3.82978 11.6713 5.13644 12.2041 6.685 12.2033" fill="#1E1E1F"/>
</svg>
