<svg width="35" height="34" viewBox="0 0 35 34" fill="none" xmlns="http://www.w3.org/2000/svg">
<path d="M4.52674 12.9143C5.62563 12.9143 6.68491 13.1194 7.70457 13.5296C8.72424 13.9397 9.64807 14.5275 10.4761 15.2929L28.0423 32.081H30.5934C31.1365 32.081 31.592 31.897 31.96 31.529C32.328 31.161 32.5113 30.7061 32.5101 30.1643C32.5101 29.9088 32.4858 29.6372 32.4372 29.3497C32.3887 29.0622 32.2213 28.7747 31.9351 28.4872L23.1663 19.7185L19.7642 9.46431L13.8973 10.9171C13.2725 11.0884 12.7045 10.9683 12.1934 10.5568C11.6823 10.1454 11.4267 9.62531 11.4267 8.99664V2.61222L10.0851 1.94139L2.74424 11.7739C2.61263 11.9541 2.49763 12.1381 2.39924 12.3259C2.30213 12.515 2.22546 12.7111 2.16924 12.9143H4.52674ZM4.52674 14.831H2.02741C2.09896 15.2271 2.21907 15.5944 2.38774 15.9331C2.55641 16.2717 2.79791 16.5828 3.11224 16.8665L18.7101 31.0747C19.0615 31.4261 19.4608 31.6817 19.908 31.8414C20.3552 32.0011 20.8184 32.081 21.2976 32.081H25.2497L9.16891 16.671C8.55174 16.0538 7.8381 15.5925 7.02799 15.2871C6.2166 14.983 5.38285 14.831 4.52674 14.831ZM21.2976 33.9976C20.5846 33.9976 19.901 33.8711 19.2467 33.6181C18.5951 33.3651 17.9996 32.9927 17.4604 32.5007L1.88749 18.3653C0.787323 17.3431 0.167601 16.1036 0.0283233 14.647C-0.110954 13.1903 0.263434 11.8595 1.15149 10.6546L8.56707 0.783724C8.83924 0.417001 9.19702 0.175501 9.64041 0.0592236C10.0838 -0.0570542 10.5119 -0.00210981 10.9246 0.224057L12.3046 0.89489C12.656 1.07378 12.9166 1.31336 13.0866 1.61364C13.2578 1.91264 13.3434 2.2455 13.3434 2.61222V9.10781L19.2851 7.57064C19.777 7.43775 20.237 7.49589 20.6651 7.74506C21.0931 7.99422 21.3928 8.36095 21.564 8.84522L24.8262 18.6432L33.3036 27.1206C33.7444 27.5628 34.0421 28.0406 34.1967 28.5543C34.3501 29.068 34.4267 29.6046 34.4267 30.1643C34.4267 31.221 34.0581 32.1244 33.3208 32.8745C32.5835 33.6233 31.6744 33.9976 30.5934 33.9976H21.2976Z" fill="#282829"/>
</svg>
