<svg width="16" height="16" viewBox="0 0 16 16" fill="none" xmlns="http://www.w3.org/2000/svg">
<path d="M2.10383 6.00199C2.61454 6.00199 3.10684 6.0973 3.58074 6.28793C4.05463 6.47856 4.48399 6.75173 4.86881 7.10745L13.0328 14.9098H14.2184C14.4708 14.9098 14.6825 14.8243 14.8536 14.6532C15.0246 14.4822 15.1098 14.2708 15.1092 14.019C15.1092 13.9002 15.0979 13.774 15.0754 13.6404C15.0528 13.5068 14.975 13.3732 14.842 13.2396L10.7667 9.16426L9.18553 4.39858L6.45885 5.0738C6.16846 5.15337 5.90449 5.09755 5.66695 4.90633C5.4294 4.71511 5.31063 4.47341 5.31063 4.18123V1.21404L4.68709 0.902271L1.2754 5.47197C1.21423 5.55571 1.16079 5.64122 1.11506 5.72852C1.06993 5.81641 1.03429 5.90757 1.00817 6.00199H2.10383ZM2.10383 6.89277H0.942248C0.975503 7.07686 1.03133 7.2476 1.10971 7.40497C1.1881 7.56234 1.30034 7.70694 1.44643 7.83878L8.6956 14.4421C8.85891 14.6054 9.04449 14.7242 9.25234 14.7984C9.46019 14.8727 9.67546 14.9098 9.89815 14.9098H11.7349L4.26129 7.74792C3.97446 7.46109 3.6428 7.24671 3.26629 7.10478C2.8892 6.96344 2.50171 6.89277 2.10383 6.89277ZM9.89815 15.8006C9.56678 15.8006 9.24907 15.7418 8.94502 15.6242C8.64215 15.5066 8.36542 15.3335 8.11481 15.1049L0.87722 8.53537C0.365912 8.06029 0.0778934 7.48425 0.0131634 6.80726C-0.0515667 6.13026 0.122432 5.51176 0.535161 4.95176L3.98159 0.36424C4.10808 0.193804 4.27436 0.0815651 4.48043 0.0275245C4.68649 -0.0265162 4.88544 -0.000980545 5.07725 0.104132L5.71861 0.415905C5.88192 0.499044 6.00307 0.610392 6.08205 0.749948C6.16163 0.888909 6.20141 1.04361 6.20141 1.21404V4.2329L8.96283 3.51849C9.19147 3.45673 9.40526 3.48375 9.6042 3.59955C9.80314 3.71536 9.9424 3.88579 10.022 4.11086L11.5381 8.66453L15.478 12.6045C15.6829 12.8099 15.8212 13.032 15.8931 13.2708C15.9644 13.5095 16 13.7589 16 14.019C16 14.5101 15.8287 14.93 15.486 15.2786C15.1434 15.6266 14.7208 15.8006 14.2184 15.8006H9.89815Z" fill="#1E1E1F"/>
</svg>
