<svg width="337" height="45" viewBox="0 0 337 45" fill="none" xmlns="http://www.w3.org/2000/svg">
<path d="M5.8651e-05 44.1602V0.000152588H7.80806V19.3282L25.1521 0.000152588H32.4481L33.2161 1.60015L18.3681 18.1762L34.7521 42.5602L33.9841 44.1602H26.8161L13.3121 23.8722L7.80806 29.7602V44.1602H5.8651e-05ZM44.0626 44.1602V0.000152588H51.8706V44.1602H44.0626ZM64.7501 44.1602V0.000152588H73.2621L92.8461 31.4882V0.000152588H100.654V44.1602H92.2061L72.5581 12.6722V44.1602H64.7501ZM113.563 44.1602V0.000152588H143.259V7.10415H121.371V19.6482H141.339V26.7522H121.371V44.1602H113.563ZM151.985 33.7282V10.4322C151.985 3.47749 155.462 0.000152588 162.417 0.000152588H177.073C184.028 0.000152588 187.505 3.47749 187.505 10.4322V33.7282C187.505 40.6828 184.028 44.1602 177.073 44.1602H162.417C155.462 44.1602 151.985 40.6828 151.985 33.7282ZM159.793 34.3042C159.793 36.1388 160.732 37.0562 162.609 37.0562H176.881C178.758 37.0562 179.697 36.1388 179.697 34.3042V9.85616C179.697 8.02149 178.758 7.10415 176.881 7.10415H162.609C160.732 7.10415 159.793 8.02149 159.793 9.85616V34.3042ZM199.75 44.1602V0.000152588H220.998C227.953 0.000152588 231.43 3.47749 231.43 10.4322V17.6642C231.43 23.0402 229.297 26.3042 225.03 27.4562L232.71 42.4962L231.75 44.1602H225.094L216.902 28.0322H207.558V44.1602H199.75ZM207.558 20.9282H220.806C222.683 20.9282 223.622 19.9895 223.622 18.1122V9.85616C223.622 8.02149 222.683 7.10415 220.806 7.10415H207.558V20.9282ZM243 44.1602V0.000152588H252.6L265.848 28.2882L279.096 0.000152588H288.696V44.1602H280.824V13.3122L269.176 38.1442H262.456L250.808 13.3122V44.1602H243ZM297.339 42.6242L310.971 0.000152588H323.131L336.699 42.6242L335.739 44.1602H329.147L326.139 34.4322H307.899L304.827 44.1602H298.363L297.339 42.6242ZM310.075 27.3282H324.027L317.627 7.10415H316.411L310.075 27.3282Z" fill="white"/>
</svg>
